<?xml version="1.0" encoding="utf-8"?>
<!-- Generator: Adobe Illustrator 27.1.1, SVG Export Plug-In . SVG Version: 6.00 Build 0)  -->
<svg version="1.1" id="Ebene_1" xmlns="http://www.w3.org/2000/svg" xmlns:xlink="http://www.w3.org/1999/xlink" x="0px" y="0px"
	 viewBox="0 0 256 256" style="enable-background:new 0 0 256 256;" xml:space="preserve">
<style type="text/css">
	.st0{stroke:#000000;stroke-width:4;stroke-miterlimit:10;}
	.st1{stroke:#000000;stroke-width:3;stroke-miterlimit:10;}
</style>
<g>
	<path class="st0" d="M219.1,50L174.3,5.1c-2.4-2.4-5.6-3.7-9-3.7H45.6c-7,0-12.8,5.7-12.8,12.8v227.3c0,7,5.7,12.8,12.8,12.8h164.4
		c7,0,12.8-5.7,12.8-12.8V59C222.9,55.6,221.5,52.4,219.1,50z M173,15.8l35.4,35.4h-31.8c-2,0-3.6-1.6-3.6-3.6L173,15.8L173,15.8z
		 M210.1,245.9H45.6c-2.4,0-4.3-2-4.3-4.3V14.2c0-2.4,2-4.3,4.3-4.3h119v37.8c0,6.6,5.4,12,12,12h37.8v181.9
		C214.4,243.9,212.5,245.9,210.1,245.9z"/>
	<g>
		<path class="st1" d="M178.7,139.2H78.3c-3.6,0-6.5-3.9-6.5-8.6v-29.4c0-4.8,2.9-8.6,6.5-8.6h100.4c3.6,0,6.5,3.9,6.5,8.6v29.4
			C185.2,135.4,182.3,139.2,178.7,139.2z M78.3,99.2c-0.8,0-1.5,0.9-1.5,1.9v29.4c0,1.1,0.7,1.9,1.5,1.9h100.4
			c0.8,0,1.5-0.9,1.5-1.9v-29.4c0-1.1-0.7-1.9-1.5-1.9H78.3z"/>
		<path class="st1" d="M178.7,179.3H78.3c-3.6,0-6.5-3.9-6.5-8.6v-29.4c0-4.8,2.9-8.6,6.5-8.6h100.4c3.6,0,6.5,3.9,6.5,8.6v29.4
			C185.2,175.4,182.3,179.3,178.7,179.3z M78.3,139.2c-0.8,0-1.5,0.9-1.5,1.9v29.4c0,1.1,0.7,1.9,1.5,1.9h100.4
			c0.8,0,1.5-0.9,1.5-1.9v-29.4c0-1.1-0.7-1.9-1.5-1.9L78.3,139.2L78.3,139.2z"/>
		<path class="st1" d="M178.7,219.3H78.3c-3.6,0-6.5-3.9-6.5-8.6v-29.4c0-4.8,2.9-8.6,6.5-8.6h100.4c3.6,0,6.5,3.9,6.5,8.6v29.4
			C185.2,215.4,182.3,219.3,178.7,219.3z M78.3,179.3c-0.8,0-1.5,0.9-1.5,1.9v29.4c0,1.1,0.7,1.9,1.5,1.9h100.4
			c0.8,0,1.5-0.9,1.5-1.9v-29.4c0-1.1-0.7-1.9-1.5-1.9H78.3z"/>
	</g>
</g>
</svg>
