<?xml version="1.0" encoding="utf-8"?>
<!-- Generator: Adobe Illustrator 27.1.1, SVG Export Plug-In . SVG Version: 6.00 Build 0)  -->
<svg version="1.1" id="Ebene_1" xmlns="http://www.w3.org/2000/svg" xmlns:xlink="http://www.w3.org/1999/xlink" x="0px" y="0px"
	 viewBox="0 0 256 256" style="enable-background:new 0 0 256 256;" xml:space="preserve">
<style type="text/css">
	.st0{stroke:#000000;stroke-width:5;stroke-miterlimit:10;}
</style>
<g>
	<path class="st0" d="M219.1,50L174.3,5.1c-2.4-2.4-5.6-3.7-9-3.7H45.6c-7,0-12.8,5.7-12.8,12.8v227.3c0,7,5.7,12.8,12.8,12.8H210
		c7,0,12.8-5.7,12.8-12.8V59C222.9,55.6,221.5,52.4,219.1,50z M173,15.8l35.4,35.4h-31.8c-2,0-3.6-1.6-3.6-3.6L173,15.8L173,15.8z
		 M210.1,245.9H45.6c-2.4,0-4.3-2-4.3-4.3V14.2c0-2.4,2-4.3,4.3-4.3h119v37.8c0,6.6,5.4,12,12,12h37.8v181.9
		C214.4,243.9,212.5,245.9,210.1,245.9z"/>
	<rect x="66.2" y="174.1" width="27.6" height="37.1"/>
	<rect x="109.2" y="148.6" width="27.6" height="62.5"/>
	<rect x="152.1" y="97.8" width="27.6" height="113.4"/>
</g>
</svg>
