<?xml version="1.0" encoding="utf-8"?>
<!-- Generator: Adobe Illustrator 27.1.1, SVG Export Plug-In . SVG Version: 6.00 Build 0)  -->
<svg version="1.1" id="Ebene_1" xmlns="http://www.w3.org/2000/svg" xmlns:xlink="http://www.w3.org/1999/xlink" x="0px" y="0px"
	 viewBox="0 0 256 256" style="enable-background:new 0 0 256 256;" xml:space="preserve">
<style type="text/css">
	.st0{stroke:#000000;stroke-width:5;stroke-miterlimit:10;}
	.st1{fill:#030104;}
</style>
<g>
	<path class="st0" d="M219.1,50L174.3,5.1c-2.4-2.4-5.6-3.7-9-3.7H45.6c-7,0-12.8,5.7-12.8,12.8v227.3c0,7,5.7,12.8,12.8,12.8H210
		c7,0,12.8-5.7,12.8-12.8V59C222.9,55.6,221.5,52.4,219.1,50z M173,15.8l35.4,35.4h-31.8c-2,0-3.6-1.6-3.6-3.6L173,15.8L173,15.8z
		 M210.1,245.9H45.6c-2.4,0-4.3-2-4.3-4.3V14.2c0-2.4,2-4.3,4.3-4.3h119v37.8c0,6.6,5.4,12,12,12h37.8v181.9
		C214.4,243.9,212.5,245.9,210.1,245.9z"/>
	<g>
		<path class="st1" d="M117.1,138H117c-0.9,3.4-1.7,7.8-2.7,11.1l-3.4,12.2h12.8l-3.6-12.2C119,145.7,118,141.4,117.1,138z"/>
		<path class="st1" d="M177.5,99.2H78.1c-3.8,0-6.9,3.1-6.9,6.9v99.5c0,3.8,3.1,6.9,6.9,6.9h99.5c3.8,0,6.9-3.1,6.9-6.9v-99.5
			C184.5,102.3,181.4,99.2,177.5,99.2z M130,185.9l-4.5-14.8H109l-4.1,14.8H91.4l17.6-57.7h17.1l17.9,57.7H130z M163.8,185.9h-13
			v-41.9h13V185.9z M157.2,139c-4.1,0-6.8-2.9-6.8-6.5c-0.1-3.8,2.7-6.6,6.9-6.6c4.2,0,6.8,2.8,6.9,6.6
			C164.2,136,161.5,139,157.2,139z"/>
	</g>
</g>
</svg>
