<?xml version="1.0" encoding="utf-8"?>
<!-- Generator: Adobe Illustrator 27.1.1, SVG Export Plug-In . SVG Version: 6.00 Build 0)  -->
<svg version="1.1" id="Ebene_1" xmlns="http://www.w3.org/2000/svg" xmlns:xlink="http://www.w3.org/1999/xlink" x="0px" y="0px"
	 viewBox="0 0 256 256" style="enable-background:new 0 0 256 256;" xml:space="preserve">
<style type="text/css">
	.st0{stroke:#000000;stroke-width:5;stroke-miterlimit:10;}
</style>
<g>
	<path class="st0" d="M219.1,50L174.3,5.1c-2.4-2.4-5.6-3.7-9-3.7H45.6c-7,0-12.8,5.7-12.8,12.8v227.3c0,7,5.7,12.8,12.8,12.8H210
		c7,0,12.8-5.7,12.8-12.8V59C222.9,55.6,221.5,52.4,219.1,50z M173,15.8l35.4,35.4h-31.8c-2,0-3.6-1.6-3.6-3.6L173,15.8L173,15.8z
		 M210.1,245.9H45.6c-2.4,0-4.3-2-4.3-4.3V14.2c0-2.4,2-4.3,4.3-4.3h119v37.8c0,6.6,5.4,12,12,12h37.8v181.9
		C214.4,243.9,212.5,245.9,210.1,245.9z"/>
	<path d="M127.8,99.2c-1.8,0-3.3,0.6-4.5,1.8L73,151.2c-1.2,1.3-1.8,2.9-1.8,4.7c0,1.8,0.6,3.3,1.8,4.5l50.3,50.2
		c1.2,1.3,2.7,2,4.5,2s3.3-0.7,4.5-2l50.3-50.2c1.2-1.2,1.8-2.7,1.8-4.5c0-1.8-0.6-3.4-1.8-4.7l-7.4-7.2l-47.5,47.5l-35.6-35.6
		l35.6-35.7l11.9,11.9l-23.8,23.8l11.9,11.8l35.6-35.6l-31-31C131.1,99.8,129.6,99.2,127.8,99.2z"/>
</g>
</svg>
