<?xml version="1.0" encoding="utf-8"?>
<!-- Generator: Adobe Illustrator 27.1.1, SVG Export Plug-In . SVG Version: 6.00 Build 0)  -->
<svg version="1.1" id="Ebene_1" xmlns="http://www.w3.org/2000/svg" xmlns:xlink="http://www.w3.org/1999/xlink" x="0px" y="0px"
	 viewBox="0 0 256 256" style="enable-background:new 0 0 256 256;" xml:space="preserve">
<style type="text/css">
	.st0{stroke:#000000;stroke-width:5;stroke-miterlimit:10;}
	.st1{fill-rule:evenodd;clip-rule:evenodd;}
</style>
<g>
	<path class="st0" d="M219.1,50L174.3,5.1c-2.4-2.4-5.6-3.7-9-3.7H45.6c-7,0-12.8,5.7-12.8,12.8v227.3c0,7,5.7,12.8,12.8,12.8H210
		c7,0,12.8-5.7,12.8-12.8V59C222.9,55.6,221.5,52.4,219.1,50z M173,15.8l35.4,35.4h-31.8c-2,0-3.6-1.6-3.6-3.6L173,15.8L173,15.8z
		 M210.1,245.9H45.6c-2.4,0-4.3-2-4.3-4.3V14.2c0-2.4,2-4.3,4.3-4.3h119v37.8c0,6.6,5.4,12,12,12h37.8v181.9
		C214.4,243.9,212.5,245.9,210.1,245.9z"/>
	<path id="path4531" class="st1" d="M74.5,155.2v-24.8H82h7.5v10.6v10.6h8.6h8.6v-10.6v-10.6h6.2h6.2l-0.2,0.8
		c-0.7,2.8-5.9,26.1-5.8,26.2c0,0,3,0.5,6.6,1l6.5,0.9l1.1-1.3c1.3-1.5,2.5-2.2,4.3-2.4c4.4-0.7,8.7,3.7,7.7,8.1
		c-0.8,3.6-3.1,5.5-6.7,5.5c-2.3,0-4.2-0.9-5.4-2.5l-0.9-1.1l-5.8,0.8c-8.4,1.2-7.7,0.9-7.1,2.4c1.8,5.1,5,8.6,9.8,10.5l1.9,0.8
		l-9.2,0l-9.2,0v-9.1v-9.1h-8.6h-8.6v9.1v9.1H82h-7.5V155.2z M143.7,179.2c2.4-1,3.5-1.7,5.7-4.1c5.2-5.5,6.4-14.6,2.7-20.8
		c-1.3-2.1-4.4-4.9-6.8-6.1c-4.2-2-10.3-2.2-14.9-0.6c-1.3,0.5-2.4,0.8-2.5,0.7c-0.1-0.1,0.4-2.3,1.3-6.1l0.3-1.3h11.3h11.3v-5.3
		v-5.3H163c11.8,0,14.5,0.3,17.7,1.9c3.5,1.8,5.9,5.3,6.7,9.5c0.8,4.2,0.3,8.2-1.3,11.7c-1.3,2.7-3,4.6-5.4,5.9
		c-3.7,2-5.1,2.2-12.9,2.4l-7.1,0.2v9v9l-9.5,0l-9.5,0L143.7,179.2L143.7,179.2z M170,150.5c2-1.1,2.9-2.7,2.6-4.9
		c-0.1-0.9-0.5-2.1-0.9-2.7c-1.2-1.7-2.5-2.1-6.9-2.3l-4-0.2v5.6v5.6l3.9-0.1C167.9,151.4,168.7,151.2,170,150.5L170,150.5z"/>
</g>
</svg>
