<?xml version="1.0" encoding="utf-8"?>
<!-- Generator: Adobe Illustrator 27.1.1, SVG Export Plug-In . SVG Version: 6.00 Build 0)  -->
<svg version="1.1" id="Ebene_1" xmlns="http://www.w3.org/2000/svg" xmlns:xlink="http://www.w3.org/1999/xlink" x="0px" y="0px"
	 viewBox="0 0 256 256" style="enable-background:new 0 0 256 256;" xml:space="preserve">
<style type="text/css">
	.st0{stroke:#000000;stroke-width:5;stroke-miterlimit:10;}
</style>
<g>
	<path class="st0" d="M219.1,50L174.3,5.1c-2.4-2.4-5.6-3.7-9-3.7H45.6c-7,0-12.8,5.7-12.8,12.8v227.3c0,7,5.7,12.8,12.8,12.8H210
		c7,0,12.8-5.7,12.8-12.8V59C222.9,55.6,221.5,52.4,219.1,50z M173,15.8l35.4,35.4h-31.8c-2,0-3.6-1.6-3.6-3.6L173,15.8L173,15.8z
		 M210.1,245.9H45.6c-2.4,0-4.3-2-4.3-4.3V14.2c0-2.4,2-4.3,4.3-4.3h119v37.8c0,6.6,5.4,12,12,12h37.8v181.9
		C214.4,243.9,212.5,245.9,210.1,245.9z"/>
	<path d="M80.8,112.5c-5,0-9,4-9,9.1v63.3c0,5,4,9.1,9,9.1h95.4c5,0,9.1-4,9.1-9.1v-63.3c0-5-4-9.1-9.1-9.1H80.8z M83.4,138.1h90.1
		v38.6c0,3.3-2.6,5.9-5.9,5.9H89.4c-3.3,0-6-2.6-6-5.9V138.1z M104.5,198.9l-13.4,24.3h9.2l13.5-24.3H104.5z M123.5,198.9l0.5,24.3
		h8l-0.5-24.3H123.5z M143.7,198.9l13.1,24.3h9.1l-13.1-24.3H143.7z"/>
	<path d="M-119-145.1"/>
</g>
</svg>
