<?xml version="1.0" encoding="utf-8"?>
<!-- Generator: Adobe Illustrator 27.1.1, SVG Export Plug-In . SVG Version: 6.00 Build 0)  -->
<svg version="1.1" id="Ebene_1" xmlns="http://www.w3.org/2000/svg" xmlns:xlink="http://www.w3.org/1999/xlink" x="0px" y="0px"
	 viewBox="0 0 256 256" style="enable-background:new 0 0 256 256;" xml:space="preserve">
<style type="text/css">
	.st0{stroke:#000000;stroke-width:5;stroke-miterlimit:10;}
	.st1{stroke:#000000;stroke-miterlimit:10;}
</style>
<g>
	<path class="st0" d="M219.1,51.7L174.3,6.8c-2.4-2.4-5.6-3.7-9-3.7H45.6c-7,0-12.8,5.7-12.8,12.8v227.3c0,7,5.7,12.8,12.8,12.8H210
		c7,0,12.8-5.7,12.8-12.8V60.7C222.9,57.3,221.5,54.1,219.1,51.7z M173,17.5l35.4,35.4h-31.8c-2,0-3.6-1.6-3.6-3.6L173,17.5
		L173,17.5z M210.1,247.6H45.6c-2.4,0-4.3-2-4.3-4.3V15.9c0-2.4,2-4.3,4.3-4.3h119v37.8c0,6.6,5.4,12,12,12h37.8v181.9
		C214.4,245.6,212.5,247.6,210.1,247.6z"/>
	<path d="M-119-143.4"/>
	<polygon class="st1" points="156.6,105.4 140.2,141.5 183.4,180.9 125.2,170.4 108,206 97.9,161.7 70,153.3 92.9,139 87.5,108.5 
		114.7,124 	"/>
</g>
</svg>
