<?xml version="1.0" encoding="utf-8"?>
<!-- Generator: Adobe Illustrator 27.1.1, SVG Export Plug-In . SVG Version: 6.00 Build 0)  -->
<svg version="1.1" id="Ebene_1" xmlns="http://www.w3.org/2000/svg" xmlns:xlink="http://www.w3.org/1999/xlink" x="0px" y="0px"
	 viewBox="0 0 256 256" style="enable-background:new 0 0 256 256;" xml:space="preserve">
<style type="text/css">
	.st0{stroke:#000000;stroke-width:5;stroke-miterlimit:10;}
</style>
<g>
	<path class="st0" d="M219.1,50L174.3,5.1c-2.4-2.4-5.6-3.7-9-3.7H45.6c-7,0-12.8,5.7-12.8,12.8v227.3c0,7,5.7,12.8,12.8,12.8H210
		c7,0,12.8-5.7,12.8-12.8V59C222.9,55.6,221.5,52.4,219.1,50z M173,15.8l35.4,35.4h-31.8c-2,0-3.6-1.6-3.6-3.6L173,15.8L173,15.8z
		 M210.1,245.9H45.6c-2.4,0-4.3-2-4.3-4.3V14.2c0-2.4,2-4.3,4.3-4.3h119v37.8c0,6.6,5.4,12,12,12h37.8v181.9
		C214.4,243.9,212.5,245.9,210.1,245.9z"/>
	<path d="M173.2,201.3h-63.4l37.4-37.3c4.4-4.4,4.5-11.6,0.1-16c0,0,0,0-0.1-0.1l-37.4-37.3h63.4c6.3,0,11.3-5.1,11.3-11.3
		s-5.1-11.3-11.3-11.3H82.4c-4.6,0-8.7,2.8-10.4,7c-1.8,4.2-0.8,9.1,2.4,12.4l48.8,48.7l-48.8,48.7c-3.2,3.3-4.2,8.1-2.4,12.4
		c1.7,4.2,5.9,7,10.4,7h90.7c6.3,0,11.3-5.1,11.3-11.3C184.5,206.3,179.4,201.3,173.2,201.3z"/>
</g>
</svg>
