<?xml version="1.0" encoding="utf-8"?>
<!-- Generator: Adobe Illustrator 27.1.1, SVG Export Plug-In . SVG Version: 6.00 Build 0)  -->
<svg version="1.1" id="Ebene_1" xmlns="http://www.w3.org/2000/svg" xmlns:xlink="http://www.w3.org/1999/xlink" x="0px" y="0px"
	 viewBox="0 0 256 256" style="enable-background:new 0 0 256 256;" xml:space="preserve">
<style type="text/css">
	.st0{stroke:#000000;stroke-width:5;stroke-miterlimit:10;}
</style>
<g>
	<path class="st0" d="M219.1,50L174.3,5.1c-2.4-2.4-5.6-3.7-9-3.7H45.6c-7,0-12.8,5.7-12.8,12.8v227.3c0,7,5.7,12.8,12.8,12.8H210
		c7,0,12.8-5.7,12.8-12.8V59C222.9,55.6,221.5,52.4,219.1,50z M173,15.8l35.4,35.4h-31.8c-2,0-3.6-1.6-3.6-3.6L173,15.8L173,15.8z
		 M210.1,245.9H45.6c-2.4,0-4.3-2-4.3-4.3V14.2c0-2.4,2-4.3,4.3-4.3h119v37.8c0,6.6,5.4,12,12,12h37.8v181.9
		C214.4,243.9,212.5,245.9,210.1,245.9z"/>
	<path d="M154.9,194.6V159c0-7.4-3.1-11.2-9.2-11.2c-6.2,0-9.2,3.7-9.2,11.2v35.6h-18.1V159c0-7.4-3-11.2-9.1-11.2
		c-6.2,0-9.2,3.7-9.2,11.2v35.6H81.9v-37.7c0-7.8,2.7-13.7,8.1-17.6c4.7-3.6,11.2-5.4,19.3-5.4c8.2,0,14.2,2.1,18.1,6.3
		c3.4-4.2,9.4-6.3,18.3-6.3c8.1,0,14.5,1.8,19.2,5.4c5.4,4,8.1,9.9,8.1,17.6v37.7H154.9z"/>
	<path d="M117.1,131.2l18-13.2l-0.2-0.8c-32.5,4-47.2,6.8-75.2,23l0.3,0.7l2.2,0c-0.2,2.2-0.6,7.8-0.1,16.1
		c-3.1,9-0.1,15.1,2.8,21.7c0.5-6.9,0.4-14.5-1.7-22c-0.4-8.3-0.1-13.7,0.1-15.8l18.6,0.2c0,0-0.1,5.6,0.6,10.9
		c16.6,5.8,33.3,0,42.1-14.4C121.9,134.9,117.1,131.2,117.1,131.2z"/>
</g>
</svg>
