<?xml version="1.0" encoding="utf-8"?>
<!-- Generator: Adobe Illustrator 27.1.1, SVG Export Plug-In . SVG Version: 6.00 Build 0)  -->
<svg version="1.1" id="Ebene_1" xmlns="http://www.w3.org/2000/svg" xmlns:xlink="http://www.w3.org/1999/xlink" x="0px" y="0px"
	 viewBox="0 0 256 256" style="enable-background:new 0 0 256 256;" xml:space="preserve">
<style type="text/css">
	.st0{stroke:#000000;stroke-width:5;stroke-miterlimit:10;}
	.st1{stroke:#000000;stroke-width:4;stroke-miterlimit:10;}
</style>
<g>
	<path class="st0" d="M219.1,50L174.3,5.1c-2.4-2.4-5.6-3.7-9-3.7H45.6c-7,0-12.8,5.7-12.8,12.8v227.3c0,7,5.7,12.8,12.8,12.8H210
		c7,0,12.8-5.7,12.8-12.8V59C222.9,55.6,221.5,52.4,219.1,50z M173,15.8l35.4,35.4h-31.8c-2,0-3.6-1.6-3.6-3.6L173,15.8L173,15.8z
		 M210.1,245.9H45.6c-2.4,0-4.3-2-4.3-4.3V14.2c0-2.4,2-4.3,4.3-4.3h119v37.8c0,6.6,5.4,12,12,12h37.8v181.9
		C214.4,243.9,212.5,245.9,210.1,245.9z"/>
	<g>
		<g>
			<rect x="93.5" y="163.5" class="st1" width="11" height="43.1"/>
		</g>
	</g>
	<g>
		<g>
			<rect x="151.1" y="163.5" class="st1" width="11.1" height="43.1"/>
		</g>
	</g>
	<g>
		<g>
			<path class="st1" d="M176.1,164.7v-9.9c0-13.2-5-25.7-14.1-35c-9.1-9.4-21.2-14.6-34.2-14.6s-25,5.2-34.2,14.6
				c-9.1,9.4-14.1,21.8-14.1,35v9.9c-5,2.2-8.4,7.1-8.4,12.9v15.1c0,7.7,6.3,14,14,14h1.4v-43.1h0v-8.8c0-23.5,18.5-42.7,41.3-42.7
				s41.3,19.1,41.3,42.7v8.8h0v43.1h1.4c7.7,0,14-6.3,14-14v-15.1C184.5,171.8,181,166.8,176.1,164.7z"/>
		</g>
	</g>
</g>
</svg>
