<?xml version="1.0" encoding="utf-8"?>
<!-- Generator: Adobe Illustrator 27.1.1, SVG Export Plug-In . SVG Version: 6.00 Build 0)  -->
<svg version="1.1" id="Ebene_1" xmlns="http://www.w3.org/2000/svg" xmlns:xlink="http://www.w3.org/1999/xlink" x="0px" y="0px"
	 viewBox="0 0 256 256" style="enable-background:new 0 0 256 256;" xml:space="preserve">
<style type="text/css">
	.st0{stroke:#000000;stroke-width:5;stroke-miterlimit:10;}
	.st1{stroke:#000000;stroke-width:4;stroke-miterlimit:10;}
</style>
<g>
	<path class="st0" d="M219.1,50L174.3,5.1c-2.4-2.4-5.6-3.7-9-3.7H45.6c-7,0-12.8,5.7-12.8,12.8v227.3c0,7,5.7,12.8,12.8,12.8H210
		c7,0,12.8-5.7,12.8-12.8V59C222.9,55.6,221.5,52.4,219.1,50z M173,15.8l35.4,35.4h-31.8c-2,0-3.6-1.6-3.6-3.6L173,15.8L173,15.8z
		 M210.1,245.9H45.6c-2.4,0-4.3-2-4.3-4.3V14.2c0-2.4,2-4.3,4.3-4.3h119v37.8c0,6.6,5.4,12,12,12h37.8v181.9
		C214.4,243.9,212.5,245.9,210.1,245.9z"/>
	<g>
		<path class="st1" d="M181.8,191.2c-2.3-2.2-4.6-4.2-7-6.2c-10.7-22.9-15.1-39.9-16.9-50.4c-1.1-6.6-1.4-11.4-1.4-14.4
			c1.8-2.2,3.7-4.4,5.5-6.4c1.5-1.6,1.4-4-0.2-5.5c-1.6-1.5-4-1.4-5.5,0.2c-2.1,2.2-4.1,4.5-6,6.9c-7.6,3.9-15.7,6-24.1,6
			c-10.6,0-19-3.2-23.1-5.1c-2-2.6-4.2-5-6.3-7.4c-1.5-1.6-3.9-1.6-5.5-0.2c-1.6,1.5-1.6,3.9-0.2,5.5c1.8,1.9,3.5,4,5.3,6.1
			c-1.2,14.5-5.9,23.8-9.7,29.2c-2.8,4-5.7,6.4-7.3,7.6c-2.4,0.4-4.7,0.9-7,1.5c-2.1,0.5-3.3,2.6-2.8,4.7c0.4,1.8,2,2.9,3.8,2.9
			c0.3,0,0.6,0,0.9-0.1c2.1-0.5,4.3-1,6.5-1.3c7.4,5.8,13,13.5,16.7,22.9c1.9,4.9,2.9,9.3,3.3,11.9c-2.5,5.8-4.5,11.6-5.8,17.1
			c-0.5,2.1,0.8,4.2,2.9,4.7c0.3,0.1,0.6,0.1,0.9,0.1c1.8,0,3.4-1.2,3.8-3c1.2-5.2,3.3-10.9,5.7-16.5c14.8-10.4,32.1-12.7,44.2-12.7
			c8.9,0,16,1.2,19.1,1.8c1.9,1.6,3.8,3.3,5.6,5.1c0.6,0.6,1.5,0.9,2.3,0.9c0.9,0,1.8-0.4,2.5-1.1
			C183.2,194.6,183.1,192.4,181.8,191.2z M166.1,178.2c-4.9-3.5-9.6-6.5-13.9-9c-8.9-14.7-10.2-23.7-10.1-28.1
			c2.8-4.6,6.1-9.6,9.6-14.4C152.5,136.7,155.7,153.9,166.1,178.2z M120.9,142.4c1.8,0.4,3.8,0.7,6,0.7c1.8,0,3.5-0.2,5.2-0.5
			c-2.2,3.8-4.1,7.3-5.6,10C125,149.7,123.1,146.3,120.9,142.4z M119.5,155.9c-0.2,0-0.3,0.1-0.5,0.1c-2.5-0.2-5.5-0.5-8.9-0.6
			c1.6-2.1,3.2-4.9,4.4-8.4C116.5,150.4,118.2,153.4,119.5,155.9z M119.9,164c-1.4,2.2-3.1,5-5,8.1c-0.9-2.8-2.3-5.9-4.6-8.8
			C114.1,163.5,117.4,163.7,119.9,164z M128,165.9l0.4-0.7c2.6,1,5.8,2.2,9.3,3.9c0.6,0.3,1.3,0.6,1.9,0.9
			c-4.6,0.1-10.1,0.6-15.7,2.4C125.5,169.8,126.9,167.5,128,165.9z M140.2,162.9c-3.1-1.4-6-2.6-8.5-3.6l0.1-0.2
			c1.3-2.5,3.3-6.3,5.8-10.7c1,4.9,3,10.2,6,16.1C142.5,164,141.3,163.4,140.2,162.9z M126.3,126.6c6.1,0,12.1-1,17.8-2.9
			c-2.9,4.1-5.6,8.2-8.1,12.2c-3,1.3-6.1,2-9.3,2c-4.8,0-8.4-1.6-10.2-2.6c-2.3-3.7-4.8-7.5-7.5-11.3
			C113.7,125.5,119.6,126.6,126.3,126.6z M90.7,152.8c3.8-5.2,8.3-13.8,10.3-26.6c3.6,4.9,6.9,9.9,9.8,14.6
			c-1.3,7.9-5.1,12.4-7.5,14.5c-4.7,0-9.8,0.1-15.1,0.6C89,155,89.9,154,90.7,152.8z M102.3,185.9c-2.5-6.4-6.9-14.8-14.7-22.1
			c5.3-0.5,10.6-0.7,15.4-0.7c6.1,5.2,7.7,12.3,8.1,15.6c-2.3,4-4.6,8.5-6.8,13.1C103.8,189.9,103.1,188,102.3,185.9z M152.4,184
			c-11.1,0-26.2,1.8-40.3,9.4c2.4-4.7,4.8-9.3,7.2-13.4c7-3.9,15-4.8,20.9-4.8c5.1,0,9.1,0.7,10.6,0.9c4,2.4,8.2,5.2,12.6,8.4
			C160.3,184.2,156.5,184,152.4,184z"/>
	</g>
</g>
</svg>
