<?xml version="1.0" encoding="utf-8"?>
<!-- Generator: Adobe Illustrator 27.1.1, SVG Export Plug-In . SVG Version: 6.00 Build 0)  -->
<svg version="1.1" id="Ebene_1" xmlns="http://www.w3.org/2000/svg" xmlns:xlink="http://www.w3.org/1999/xlink" x="0px" y="0px"
	 viewBox="0 0 256 256" style="enable-background:new 0 0 256 256;" xml:space="preserve">
<style type="text/css">
	.st0{stroke:#000000;stroke-width:4;stroke-miterlimit:28.1;}
	.st1{stroke:#000000;stroke-width:3;stroke-miterlimit:28.1;}
</style>
<g>
	<path class="st0" d="M219.2,50l-45-45c-2.5-2.5-5.6-3.7-9-3.7H45.5c-7,0-12.6,5.6-12.6,12.6v227.3c0,7,5.6,12.6,12.6,12.6h164.4
		c7,0,12.6-5.6,12.6-12.6V58.7C222.8,55.6,221.4,52.3,219.2,50z M173.1,15.7l35.4,35.4h-32c-2,0-3.7-1.7-3.7-3.7L173.1,15.7
		L173.1,15.7z M210.2,245.9H45.5c-2.5,0-4.2-2-4.2-4.2V14.1c0-2.5,2-4.2,4.2-4.2h118.9v37.9c0,6.7,5.3,12.1,12.1,12.1h37.9v181.8
		C214.4,243.9,212.4,245.9,210.2,245.9z"/>
	<path class="st1" d="M80.6,207.6c-3.4,0-5.5-1.8-6.6-3.2l-0.3-0.3l-0.3-0.5c-2.4-5-3.2-12.4,4.8-21.1c6.6-7.1,17.4-13.2,29.9-17.7
		c4.2-7.9,8.2-16.1,11.4-24.3c-7.9-13.2-11.1-26.9-7.9-36.2c1.8-5,5.8-8.5,10.8-9.2h0.5c5.5,0,9.8,3.4,11.1,9.2
		c1.8,7.9-0.8,21.1-6.1,35.1c1.8,2.9,4.2,5.8,6.9,8.7c2.4,2.9,4.8,5.5,7.4,7.9c13.5-1.8,25.6-1.6,33,1.3c8.5,3.2,10,9,10,12.2l0,0
		c0,5-2.4,9-6.9,10.6c-9.2,3.4-24.8-3.2-38.8-15.6c-8.7,1.3-17.7,3.7-25.9,6.6c-9.2,16.9-19.8,30.9-27.7,34.9
		C84,207.1,82.2,207.6,80.6,207.6z M80.3,199.7c0.3,0,0.8,0,2.1-0.5c5.3-2.6,12.2-11.6,19.3-23c-7.4,3.4-13.5,7.4-17.7,11.9
		C78.7,193.6,79.5,197.6,80.3,199.7z M150.6,163.2c11.1,8.2,20.9,11.1,25.1,9.5c0.8-0.3,1.8-0.8,1.8-2.9c0-0.8-0.3-3.2-5-4.8
		C167.5,163.2,159.6,162.7,150.6,163.2z M124.7,148.4c-1.8,4.2-3.7,8.5-5.8,12.7c4.5-1.3,9.2-2.4,13.7-3.4c-1.3-1.3-2.6-2.9-3.7-4.2
		C127.6,151.9,126,150.3,124.7,148.4z M123.4,103c-1.3,0.3-3.2,1.1-4.2,4c-1.8,5-0.5,14,4,23.5c3.2-10,4.8-18.8,3.4-24.3
		C125.8,103.5,124.7,103,123.4,103z"/>
</g>
</svg>
