<?xml version="1.0" encoding="utf-8"?>
<!-- Generator: Adobe Illustrator 27.1.1, SVG Export Plug-In . SVG Version: 6.00 Build 0)  -->
<svg version="1.1" id="Ebene_1" xmlns="http://www.w3.org/2000/svg" xmlns:xlink="http://www.w3.org/1999/xlink" x="0px" y="0px"
	 viewBox="0 0 256 256" style="enable-background:new 0 0 256 256;" xml:space="preserve">
<style type="text/css">
	.st0{stroke:#000000;stroke-width:5;stroke-miterlimit:10;}
</style>
<g>
	<path class="st0" d="M219.1,50L174.3,5.1c-2.4-2.4-5.6-3.7-9-3.7H45.6c-7,0-12.8,5.7-12.8,12.8v227.3c0,7,5.7,12.8,12.8,12.8H210
		c7,0,12.8-5.7,12.8-12.8V59C222.9,55.6,221.5,52.4,219.1,50z M173,15.8l35.4,35.4h-31.8c-2,0-3.6-1.6-3.6-3.6L173,15.8L173,15.8z
		 M210.1,245.9H45.6c-2.4,0-4.3-2-4.3-4.3V14.2c0-2.4,2-4.3,4.3-4.3h119v37.8c0,6.6,5.4,12,12,12h37.8v181.9
		C214.4,243.9,212.5,245.9,210.1,245.9z"/>
	<path d="M84.6,108.1h7.1c3.2,0,5.4,0.8,6.9,2.4c0.1,0.2,1.4,1.9,1.4,10.6v69.4c0,7.7-0.9,9.6-1.1,10c-0.6,1-1.5,1.7-2.6,2.2
		c-1.2,0.6-2.8,0.8-4.6,0.8h-7v9h52v-9h-7.1c-3.2,0-5.4-0.8-6.9-2.5c-0.1-0.2-1.4-1.9-1.4-10.6V163c12.4,2.3,22.2,2,30.2-0.8
		c4.5-1.6,8.3-3.8,11.4-6.7c3.1-2.9,5.6-6.4,7.2-10.4c1.6-4,2.4-8.4,2.4-13.1c0-3.6-0.6-7-1.7-10.1c-1.1-3.1-2.7-5.9-4.7-8.5
		c-2-2.5-4.3-4.7-6.9-6.6c-2.6-1.8-5.4-3.3-8.4-4.4c-5.9-2.1-13.9-3.2-23.7-3.2H84.6L84.6,108.1L84.6,108.1z M121.2,112.5
		c1.1-0.2,2.2-0.4,3.2-0.6c5.1-0.7,8.6-0.3,12.1,1.1c2.4,0.9,4.5,2.3,6.2,4.2c1.8,1.9,3.2,4.1,4.2,6.8c1,2.7,1.5,5.9,1.5,9.4
		c0,2.9-0.5,5.7-1.4,8.1c-1,2.5-2.2,4.6-3.8,6.3c-1.5,1.7-3.4,3.1-5.4,4c-3.3,1.5-6.5,1.7-11.7,1c-1.4-0.2-3.1-0.4-4.8-0.7
		L121.2,112.5L121.2,112.5z"/>
</g>
</svg>
