<?xml version="1.0" encoding="utf-8"?>
<!-- Generator: Adobe Illustrator 27.1.1, SVG Export Plug-In . SVG Version: 6.00 Build 0)  -->
<svg version="1.1" id="Ebene_1" xmlns="http://www.w3.org/2000/svg" xmlns:xlink="http://www.w3.org/1999/xlink" x="0px" y="0px"
	 viewBox="0 0 256 256" style="enable-background:new 0 0 256 256;" xml:space="preserve">
<style type="text/css">
	.st0{stroke:#000000;stroke-width:5;stroke-miterlimit:10;}
</style>
<g>
	<path class="st0" d="M219.1,50L174.3,5.1c-2.4-2.4-5.6-3.7-9-3.7H45.6c-7,0-12.8,5.7-12.8,12.8v227.3c0,7,5.7,12.8,12.8,12.8H210
		c7,0,12.8-5.7,12.8-12.8V59C222.9,55.6,221.5,52.4,219.1,50z M173,15.8l35.4,35.4h-31.8c-2,0-3.6-1.6-3.6-3.6L173,15.8L173,15.8z
		 M210.1,245.9H45.6c-2.4,0-4.3-2-4.3-4.3V14.2c0-2.4,2-4.3,4.3-4.3h119v37.8c0,6.6,5.4,12,12,12h37.8v181.9
		C214.4,243.9,212.5,245.9,210.1,245.9z"/>
	<g>
		<g>
			<g>
				<path d="M109.6,132c-2.9,0-4.8,0.3-5.8,0.6V151c1.2,0.3,2.7,0.4,4.7,0.4c7.5,0,12.1-3.8,12.1-10.2
					C120.6,135.5,116.6,132,109.6,132z"/>
				<path d="M177.6,99.7H78.1c-3.8,0-6.9,3.1-6.9,6.9v99.5c0,3.8,3.1,6.9,6.9,6.9h99.5c3.8,0,6.9-3.1,6.9-6.9v-99.5
					C184.5,102.8,181.4,99.7,177.6,99.7z M128.8,155.7c-4.8,4.5-12,6.6-20.3,6.6c-1.9,0-3.5-0.1-4.8-0.3v22.3h-14v-61.6
					c4.4-0.7,10.5-1.3,19.1-1.3c8.7,0,14.9,1.7,19.1,5c4,3.2,6.7,8.3,6.7,14.5C134.6,147,132.5,152.1,128.8,155.7z M149.9,185.2
					c-5.9,0-11.2-1.3-14.7-3.1l2.5-10.1c2.6,1.6,8,3.4,12.2,3.4c4.2,0,6-1.5,6-3.8c0-2.3-1.4-3.4-6.7-5.2c-9.4-3.1-13-8.2-12.9-13.6
					c0-8.4,7.2-14.8,18.4-14.8c5.3,0,10,1.2,12.8,2.6l-2.5,9.7c-2-1.1-5.9-2.6-9.8-2.6c-3.4,0-5.4,1.4-5.4,3.7
					c0,2.1,1.7,3.2,7.3,5.2c8.6,3,12.2,7.3,12.3,14C169.6,179,162.9,185.2,149.9,185.2z"/>
			</g>
		</g>
	</g>
</g>
</svg>
