<?xml version="1.0" encoding="utf-8"?>
<!-- Generator: Adobe Illustrator 27.1.1, SVG Export Plug-In . SVG Version: 6.00 Build 0)  -->
<svg version="1.1" id="Ebene_1" xmlns="http://www.w3.org/2000/svg" xmlns:xlink="http://www.w3.org/1999/xlink" x="0px" y="0px"
	 viewBox="0 0 256 256" style="enable-background:new 0 0 256 256;" xml:space="preserve">
<style type="text/css">
	.st0{stroke:#000000;stroke-width:5;stroke-miterlimit:10;}
</style>
<g>
	<path class="st0" d="M219.1,50L174.3,5.1c-2.4-2.4-5.6-3.7-9-3.7H45.6c-7,0-12.8,5.7-12.8,12.8v227.3c0,7,5.7,12.8,12.8,12.8H210
		c7,0,12.8-5.7,12.8-12.8V59C222.9,55.6,221.5,52.4,219.1,50z M173,15.8l35.4,35.4h-31.8c-2,0-3.6-1.6-3.6-3.6L173,15.8L173,15.8z
		 M210.1,245.9H45.6c-2.4,0-4.3-2-4.3-4.3V14.2c0-2.4,2-4.3,4.3-4.3h119v37.8c0,6.6,5.4,12,12,12h37.8v181.9
		C214.4,243.9,212.5,245.9,210.1,245.9z"/>
	<g>
		<g transform="matrix(1 0 0 -1 0 1952)">
			<path d="M184.5,1756.8c0,0-9.4,10.5-10.9,12c4.6,8,7.2,17.3,7.2,27.3c0,30.3-24.6,54.9-54.9,54.9c-30.3,0-54.9-24.6-54.9-54.9
				c0-30.3,24.6-54.9,54.9-54.9c13.1,0,25.1,4.6,34.5,12.2c1.5-1.1,9.8-12.1,9.8-12.1l14.2,0L184.5,1756.8z M125.8,1759.6
				c-20.2,0-36.5,16.3-36.5,36.5c0,20.2,16.3,36.8,36.5,36.8c7.6,0,14.6-2.3,20.5-6.3l-0.8-0.4l-24.8-24.7c-2.9-2.9-2.9-7.5,0-10.4
				s7.5-2.9,10.4,0l25.6,25.5c-0.3,0.4-4.5,5.8-10.3,10l5.9,5.9l10.2-10.2l-5.8-5.8c3.8-5.8,5.8-13.2,5.8-20.5
				C162.6,1775.9,145.9,1759.6,125.8,1759.6L125.8,1759.6z M156.7,1816.6C156.7,1816.6,156.7,1816.6,156.7,1816.6L156.7,1816.6
				C156.7,1816.6,156.7,1816.6,156.7,1816.6L156.7,1816.6z"/>
		</g>
	</g>
</g>
</svg>
