<?xml version="1.0" encoding="utf-8"?>
<!-- Generator: Adobe Illustrator 27.1.1, SVG Export Plug-In . SVG Version: 6.00 Build 0)  -->
<svg version="1.1" id="Ebene_1" xmlns="http://www.w3.org/2000/svg" xmlns:xlink="http://www.w3.org/1999/xlink" x="0px" y="0px"
	 viewBox="0 0 256 256" style="enable-background:new 0 0 256 256;" xml:space="preserve">
<style type="text/css">
	.st0{stroke:#000000;stroke-width:5;stroke-miterlimit:10;}
	.st1{fill:#1D1D1B;}
</style>
<g>
	<path class="st0" d="M219.1,50L174.3,5.1c-2.4-2.4-5.6-3.7-9-3.7H45.6c-7,0-12.8,5.7-12.8,12.8v227.3c0,7,5.7,12.8,12.8,12.8H210
		c7,0,12.8-5.7,12.8-12.8V59C222.9,55.6,221.5,52.4,219.1,50z M173,15.8l35.4,35.4h-31.8c-2,0-3.6-1.6-3.6-3.6L173,15.8L173,15.8z
		 M210.1,245.9H45.6c-2.4,0-4.3-2-4.3-4.3V14.2c0-2.4,2-4.3,4.3-4.3h119v37.8c0,6.6,5.4,12,12,12h37.8v181.9
		C214.4,243.9,212.5,245.9,210.1,245.9z"/>
	<path class="st1" d="M169.2,155.9c0-1.2-0.3-2.4-0.4-3.5l15.7-15.1l-12.2-21.1c0,0-12.3,3.5-20.8,5.9c-2-1.4-4.1-2.6-6.3-3.6
		l-5.3-21h-24.3c0,0-3.1,12.5-5.3,21c-2.2,1-4.3,2.2-6.3,3.6l-20.8-5.9l-12.2,21.1c0,0,9.4,9.1,15.7,15.1c-0.1,1.2-0.4,2.3-0.4,3.5
		c0,1.2,0.3,2.4,0.4,3.5l-15.7,15.1l12.2,21.1l20.8-5.9c2,1.4,4.1,2.6,6.3,3.6l5.3,21H140l5.3-21c2.2-1,4.3-2.2,6.3-3.6l20.8,5.9
		l12.2-21.1l-15.7-15.1C168.9,158.3,169.2,157.1,169.2,155.9z M127.8,170.5c-8.1,0-14.6-6.5-14.6-14.6s6.5-14.6,14.6-14.6
		c8.1,0,14.6,6.5,14.6,14.6S135.9,170.5,127.8,170.5z"/>
</g>
</svg>
