<?xml version="1.0" encoding="utf-8"?>
<!-- Generator: Adobe Illustrator 27.1.1, SVG Export Plug-In . SVG Version: 6.00 Build 0)  -->
<svg version="1.1" id="Ebene_1" xmlns="http://www.w3.org/2000/svg" xmlns:xlink="http://www.w3.org/1999/xlink" x="0px" y="0px"
	 viewBox="0 0 256 256" style="enable-background:new 0 0 256 256;" xml:space="preserve">
<style type="text/css">
	.st0{stroke:#000000;stroke-width:5;stroke-miterlimit:10;}
</style>
<g>
	<path class="st0" d="M219.1,50L174.3,5.1c-2.4-2.4-5.6-3.7-9-3.7H45.6c-7,0-12.8,5.7-12.8,12.8v227.3c0,7,5.7,12.8,12.8,12.8H210
		c7,0,12.8-5.7,12.8-12.8V59C222.9,55.6,221.5,52.4,219.1,50z M173,15.8l35.4,35.4h-31.8c-2,0-3.6-1.6-3.6-3.6L173,15.8L173,15.8z
		 M210.1,245.9H45.6c-2.4,0-4.3-2-4.3-4.3V14.2c0-2.4,2-4.3,4.3-4.3h119v37.8c0,6.6,5.4,12,12,12h37.8v181.9
		C214.4,243.9,212.5,245.9,210.1,245.9z"/>
	<path class="st0" d="M176.2,83.5H79.4c-1.6,0-2.8-1.3-2.8-2.8c0-1.6,1.3-2.8,2.8-2.8h96.8c1.6,0,2.8,1.3,2.8,2.8
		C179,82.3,177.8,83.5,176.2,83.5z"/>
	<path class="st0" d="M176.2,139.7H79.4c-1.6,0-2.8-1.3-2.8-2.8s1.3-2.8,2.8-2.8h96.8c1.6,0,2.8,1.3,2.8,2.8
		S177.8,139.7,176.2,139.7z"/>
	<path class="st0" d="M176.2,111.6H79.4c-1.6,0-2.8-1.3-2.8-2.8c0-1.6,1.3-2.8,2.8-2.8h96.8c1.6,0,2.8,1.3,2.8,2.8
		C179,110.4,177.8,111.6,176.2,111.6z"/>
	<path class="st0" d="M176.2,195.9H79.4c-1.6,0-2.8-1.3-2.8-2.8c0-1.6,1.3-2.8,2.8-2.8h96.8c1.6,0,2.8,1.3,2.8,2.8
		C179,194.7,177.8,195.9,176.2,195.9z"/>
	<path class="st0" d="M176.2,167.8H79.4c-1.6,0-2.8-1.3-2.8-2.8c0-1.6,1.3-2.8,2.8-2.8h96.8c1.6,0,2.8,1.3,2.8,2.8
		C179,166.6,177.8,167.8,176.2,167.8z"/>
	<path class="st0" d="M120,224H79.4c-1.6,0-2.8-1.3-2.8-2.8s1.3-2.8,2.8-2.8H120c1.6,0,2.8,1.3,2.8,2.8S121.6,224,120,224z"/>
</g>
</svg>
