<?xml version="1.0" encoding="utf-8"?>
<!-- Generator: Adobe Illustrator 27.1.1, SVG Export Plug-In . SVG Version: 6.00 Build 0)  -->
<svg version="1.1" id="Ebene_1" xmlns="http://www.w3.org/2000/svg" xmlns:xlink="http://www.w3.org/1999/xlink" x="0px" y="0px"
	 viewBox="0 0 256 256" style="enable-background:new 0 0 256 256;" xml:space="preserve">
<style type="text/css">
	.st0{stroke:#000000;stroke-width:5;stroke-miterlimit:10;}
	.st1{fill:#010002;}
	.st2{fill:#010002;stroke:#000000;stroke-width:3;stroke-miterlimit:10;}
</style>
<path class="st0" d="M219.1,50L174.3,5.1c-2.4-2.4-5.6-3.7-9-3.7H45.6c-7,0-12.8,5.7-12.8,12.8v227.3c0,7,5.7,12.8,12.8,12.8H210
	c7,0,12.8-5.7,12.8-12.8V59C222.9,55.6,221.5,52.4,219.1,50z M173,15.8l35.4,35.4h-31.8c-2,0-3.6-1.6-3.6-3.6L173,15.8L173,15.8z
	 M210.1,245.9H45.6c-2.4,0-4.3-2-4.3-4.3V14.2c0-2.4,2-4.3,4.3-4.3h119v37.8c0,6.6,5.4,12,12,12h37.8v181.9
	C214.4,243.9,212.5,245.9,210.1,245.9z"/>
<circle class="st1" cx="94.2" cy="129.9" r="10.3"/>
<path class="st2" d="M181.8,105.8h-108c-1.5,0-2.7,1.2-2.7,2.7v94.7c0,0,0,0.1,0,0.1c0,0.3,0.1,0.5,0.2,0.8c0,0.1,0,0.2,0.1,0.2
	c0,0,0,0.1,0.1,0.1c0.1,0.2,0.3,0.4,0.5,0.6c0,0,0.1,0,0.1,0.1c0.2,0.2,0.4,0.3,0.7,0.5c0.1,0,0.2,0.1,0.2,0.1
	c0.3,0.1,0.6,0.2,0.9,0.2h41.4h6.3h60.3c0.3,0,0.6-0.1,0.9-0.2c0.1,0,0.1-0.1,0.2-0.1c0.3-0.1,0.5-0.3,0.8-0.5c0,0,0,0,0,0
	c0.2-0.2,0.3-0.3,0.4-0.5c0-0.1,0-0.1,0.1-0.2c0-0.1,0.1-0.2,0.1-0.2c0.1-0.3,0.2-0.6,0.2-0.9c0,0,0,0,0,0v-94.7
	C184.5,107.1,183.3,105.8,181.8,105.8z M78.8,200.6l23.9-36.2l21.1,18.9l-10,17.3L78.8,200.6L78.8,200.6z M121.5,200.6h-1.4
	l28.4-49.3l28.6,49.3L121.5,200.6L121.5,200.6z M150.8,144.5c-0.5-0.8-1.4-1.3-2.3-1.3c0,0,0,0,0,0c-1,0-1.9,0.5-2.3,1.4l-19.6,34
	L104,158.3c-0.6-0.5-1.4-0.8-2.1-0.7c-0.8,0.1-1.5,0.5-1.9,1.2l-23.4,35.5v-83h102.6v82L150.8,144.5z"/>
</svg>
