<?xml version="1.0" encoding="utf-8"?>
<!-- Generator: Adobe Illustrator 27.1.1, SVG Export Plug-In . SVG Version: 6.00 Build 0)  -->
<svg version="1.1" id="Ebene_1" xmlns="http://www.w3.org/2000/svg" xmlns:xlink="http://www.w3.org/1999/xlink" x="0px" y="0px"
	 viewBox="0 0 256 256" style="enable-background:new 0 0 256 256;" xml:space="preserve">
<style type="text/css">
	.st0{stroke:#000000;stroke-width:5;stroke-miterlimit:10;}
</style>
<g>
	<path class="st0" d="M219.1,50L174.3,5.1c-2.4-2.4-5.6-3.7-9-3.7H45.6c-7,0-12.8,5.7-12.8,12.8v227.3c0,7,5.7,12.8,12.8,12.8H210
		c7,0,12.8-5.7,12.8-12.8V59C222.9,55.6,221.5,52.4,219.1,50z M173,15.8l35.4,35.4h-31.8c-2,0-3.6-1.6-3.6-3.6L173,15.8L173,15.8z
		 M210.1,245.9H45.6c-2.4,0-4.3-2-4.3-4.3V14.2c0-2.4,2-4.3,4.3-4.3h119v37.8c0,6.6,5.4,12,12,12h37.8v181.9
		C214.4,243.9,212.5,245.9,210.1,245.9z"/>
	<path class="st0" d="M71.1,159.2c0,1.6,1.3,3,3,3h15.8c0.9,0,1.8-0.4,2.4-1.2l5.6-7.5l4.9,22.2c0.3,1.4,1.6,2.3,2.9,2.3
		c1.4,0,2.6-1.1,2.9-2.4l6.3-33.7l6.8,43.1c0.2,1.4,1.5,2.5,3,2.5c1.5,0,2.7-1.2,2.9-2.6l6.6-52.8l6.5,49.7c0.2,1.4,1.4,2.5,2.8,2.6
		c1.4,0.1,2.7-0.9,3-2.3l6.3-29.6l3.6,20c0.2,1.2,1.2,2.2,2.4,2.4c1.3,0.2,2.6-0.5,3.1-1.6l5.5-11h14c1.6,0,3-1.3,3-3
		c0-1.6-1.3-3-3-3h-15.8c-1.1,0-2.1,0.6-2.7,1.6l-2.3,4.7l-4.7-26c-0.3-1.4-1.5-2.4-2.9-2.4c-1.4,0-2.6,1-2.9,2.3l-5.9,27.4
		l-7.3-55.6c-0.2-1.5-1.5-2.6-2.9-2.6c-1.5,0-2.8,1.1-2.9,2.6l-6.9,55.1l-6.2-39.4c-0.2-1.4-1.4-2.5-2.9-2.5c-1.4,0-2.7,1-3,2.4
		l-6.8,36.3l-3.2-14.3c-0.5-2.4-3.8-3.1-5.3-1.1l-8.6,11.5H74.1C72.4,156.3,71.1,157.6,71.1,159.2z"/>
</g>
</svg>
