<?xml version="1.0" encoding="utf-8"?>
<!-- Generator: Adobe Illustrator 27.1.1, SVG Export Plug-In . SVG Version: 6.00 Build 0)  -->
<svg version="1.1" id="Ebene_1" xmlns="http://www.w3.org/2000/svg" xmlns:xlink="http://www.w3.org/1999/xlink" x="0px" y="0px"
	 viewBox="0 0 256 256" style="enable-background:new 0 0 256 256;" xml:space="preserve">
<style type="text/css">
	.st0{stroke:#000000;stroke-width:5;stroke-miterlimit:10;}
</style>
<g>
	<path class="st0" d="M219.1,50L174.3,5.1c-2.4-2.4-5.6-3.7-9-3.7H45.6c-7,0-12.8,5.7-12.8,12.8v227.3c0,7,5.7,12.8,12.8,12.8H210
		c7,0,12.8-5.7,12.8-12.8V59C222.9,55.6,221.5,52.4,219.1,50z M173,15.8l35.4,35.4h-31.8c-2,0-3.6-1.6-3.6-3.6L173,15.8L173,15.8z
		 M210.1,245.9H45.6c-2.4,0-4.3-2-4.3-4.3V14.2c0-2.4,2-4.3,4.3-4.3h119v37.8c0,6.6,5.4,12,12,12h37.8v181.9
		C214.4,243.9,212.5,245.9,210.1,245.9z"/>
	<g>
		<path d="M193,101.6H62.6c-3.1,0-5.7,2.6-5.7,5.7v97.3c0,3.1,2.5,5.7,5.7,5.7H193c3.1,0,5.7-2.6,5.7-5.7v-97.3
			C198.7,104.1,196.1,101.6,193,101.6z M84.3,200.4c0,2.1-1.7,3.8-3.8,3.8H69.2c-2.1,0-3.8-1.7-3.8-3.8v-11.3c0-2.1,1.7-3.8,3.8-3.8
			h11.3c2.1,0,3.8,1.7,3.8,3.8V200.4L84.3,200.4z M84.3,174.9c0,2.1-1.7,3.8-3.8,3.8H69.2c-2.1,0-3.8-1.7-3.8-3.8v-11.3
			c0-2.1,1.7-3.8,3.8-3.8h11.3c2.1,0,3.8,1.7,3.8,3.8V174.9L84.3,174.9z M84.3,149.3c0,2.1-1.7,3.8-3.8,3.8H69.2
			c-2.1,0-3.8-1.7-3.8-3.8V138c0-2.1,1.7-3.8,3.8-3.8h11.3c2.1,0,3.8,1.7,3.8,3.8V149.3L84.3,149.3z M84.3,123.8
			c0,2.1-1.7,3.8-3.8,3.8H69.2c-2.1,0-3.8-1.7-3.8-3.8v-11.3c0-2.1,1.7-3.8,3.8-3.8h11.3c2.1,0,3.8,1.7,3.8,3.8V123.8L84.3,123.8z
			 M160.4,200.4c0,2.8-2.3,5.1-5.1,5.1H99.4c-2.8,0-5.1-2.3-5.1-5.1v-37.1c0-2.8,2.3-5.1,5.1-5.1h55.9c2.8,0,5.1,2.3,5.1,5.1
			L160.4,200.4L160.4,200.4z M160.4,148.5c0,2.8-2.3,5.1-5.1,5.1H99.4c-2.8,0-5.1-2.3-5.1-5.1v-37.1c0-2.8,2.3-5.1,5.1-5.1h55.9
			c2.8,0,5.1,2.3,5.1,5.1L160.4,148.5L160.4,148.5z M189.2,200.4c0,2.1-1.7,3.8-3.8,3.8h-11.3c-2.1,0-3.8-1.7-3.8-3.8v-11.3
			c0-2.1,1.7-3.8,3.8-3.8h11.3c2.1,0,3.8,1.7,3.8,3.8V200.4z M189.2,174.8c0,2.1-1.7,3.8-3.8,3.8h-11.3c-2.1,0-3.8-1.7-3.8-3.8
			v-11.3c0-2.1,1.7-3.8,3.8-3.8h11.3c2.1,0,3.8,1.7,3.8,3.8V174.8z M189.2,149.3c0,2.1-1.7,3.8-3.8,3.8h-11.3
			c-2.1,0-3.8-1.7-3.8-3.8v-11.3c0-2.1,1.7-3.8,3.8-3.8h11.3c2.1,0,3.8,1.7,3.8,3.8V149.3z M189.2,123.7c0,2.1-1.7,3.8-3.8,3.8
			h-11.3c-2.1,0-3.8-1.7-3.8-3.8v-11.3c0-2.1,1.7-3.8,3.8-3.8h11.3c2.1,0,3.8,1.7,3.8,3.8V123.7z"/>
	</g>
</g>
</svg>
