<?xml version="1.0" encoding="utf-8"?>
<!-- Generator: Adobe Illustrator 27.1.1, SVG Export Plug-In . SVG Version: 6.00 Build 0)  -->
<svg version="1.1" id="Ebene_1" xmlns="http://www.w3.org/2000/svg" xmlns:xlink="http://www.w3.org/1999/xlink" x="0px" y="0px"
	 viewBox="0 0 256 256" style="enable-background:new 0 0 256 256;" xml:space="preserve">
<style type="text/css">
	.st0{stroke:#000000;stroke-width:5;stroke-miterlimit:10;}
	.st1{stroke:#000000;stroke-width:3;stroke-miterlimit:10;}
</style>
<g>
	<path class="st0" d="M219.1,50L174.3,5.1c-2.4-2.4-5.6-3.7-9-3.7H45.6c-7,0-12.8,5.7-12.8,12.8v227.3c0,7,5.7,12.8,12.8,12.8H210
		c7,0,12.8-5.7,12.8-12.8V59C222.9,55.6,221.5,52.4,219.1,50z M173,15.8l35.4,35.4h-31.8c-2,0-3.6-1.6-3.6-3.6L173,15.8L173,15.8z
		 M210.1,245.9H45.6c-2.4,0-4.3-2-4.3-4.3V14.2c0-2.4,2-4.3,4.3-4.3h119v37.8c0,6.6,5.4,12,12,12h37.8v181.9
		C214.4,243.9,212.5,245.9,210.1,245.9z"/>
	<path class="st1" d="M181,123.3h-60.6c-1.9,0-3.4-1.5-3.4-3.4c0-1.9,1.5-3.4,3.4-3.4H181c1.9,0,3.4,1.5,3.4,3.4
		S183,123.3,181,123.3z"/>
	<path class="st1" d="M103.6,123.3h-29c-1.9,0-3.4-1.5-3.4-3.4c0-1.9,1.5-3.4,3.4-3.4h29c1.9,0,3.4,1.5,3.4,3.4
		S105.5,123.3,103.6,123.3z"/>
	<path class="st1" d="M121.6,94.4h-47c-1.9,0-3.4-1.5-3.4-3.4c0-1.9,1.5-3.4,3.4-3.4h47c1.9,0,3.4,1.5,3.4,3.4
		C125,92.9,123.5,94.4,121.6,94.4z"/>
	<path class="st1" d="M181,148.5H74.6c-1.9,0-3.4-1.5-3.4-3.4c0-1.9,1.5-3.4,3.4-3.4h106.5c1.9,0,3.4,1.5,3.4,3.4
		C184.5,147,183,148.5,181,148.5z"/>
	<path class="st1" d="M135.1,173.8H74.6c-1.9,0-3.4-1.5-3.4-3.4s1.5-3.4,3.4-3.4h60.6c1.9,0,3.4,1.5,3.4,3.4S137,173.8,135.1,173.8z
		"/>
	<path class="st1" d="M181,173.8h-29c-1.9,0-3.4-1.5-3.4-3.4s1.5-3.4,3.4-3.4h29c1.9,0,3.4,1.5,3.4,3.4S183,173.8,181,173.8z"/>
	<path class="st1" d="M181,199.1H74.6c-1.9,0-3.4-1.5-3.4-3.4c0-1.9,1.5-3.4,3.4-3.4h106.5c1.9,0,3.4,1.5,3.4,3.4
		C184.5,197.5,183,199.1,181,199.1z"/>
	<path class="st1" d="M181,224.3h-29c-1.9,0-3.4-1.5-3.4-3.4c0-1.9,1.5-3.4,3.4-3.4h29c1.9,0,3.4,1.5,3.4,3.4
		C184.5,222.8,183,224.3,181,224.3z"/>
</g>
</svg>
